<?xml version="1.0" encoding="UTF-8"?>
<!DOCTYPE svg PUBLIC "-//W3C//DTD SVG 1.1//EN" "http://www.w3.org/Graphics/SVG/1.1/DTD/svg11.dtd">
<!-- Creator: CorelDRAW -->
<svg xmlns="http://www.w3.org/2000/svg" xml:space="preserve" width="27.2459mm" height="7.0182mm" version="1.1" style="shape-rendering:geometricPrecision; text-rendering:geometricPrecision; image-rendering:optimizeQuality; fill-rule:evenodd; clip-rule:evenodd"
viewBox="0 0 2724.6 701.82"
 xmlns:xlink="http://www.w3.org/1999/xlink"
 xmlns:xodm="http://www.corel.com/coreldraw/odm/2003">
 <defs>
  <style type="text/css">
   <![CDATA[
    .fil1 {fill:#326CE5}
    .fil0 {fill:#326CE5}
   ]]>
  </style>
 </defs>
 <g id="Camada_x0020_1">
  <metadata id="CorelCorpID_0Corel-Layer"/>
  <g id="_1897657211856">
   <path class="fil0" d="M2084.28 370.21l122.48 0.45 3.75 -235.11 54.89 -4.19 62.38 -0.9c85.32,4.59 121.11,-0.17 181.9,44.31 139,101.69 124.22,374.55 -135,397.99l-0.79 129.04c136.62,-18.79 224.3,-50.37 298.64,-166.24 71.14,-110.88 66.98,-260.77 2.15,-366.36 -90.63,-147.58 -223.95,-172.41 -442.44,-165.27l-44.3 -0.63 -105.42 -3.3 1.76 370.21z"/>
   <g>
    <path class="fil1" d="M0.02 348.8l119.21 0c30.36,190.81 209.73,301.95 384.57,174.16l89.01 83.28c-230.35,211.06 -595.13,49.18 -592.79,-257.44z"/>
    <path class="fil1" d="M245.33 10.33c135.97,-26.59 251.2,-2.41 342.7,79.66l-79.66 88.91c-79.98,-57.21 -168.23,-67.51 -263.04,-40.76l0 -127.81z"/>
   </g>
   <path class="fil0" d="M668.96 701.82l97.76 0 18.98 -33.92 0 -0.19 226.91 -314.62 242.01 348.73 125.81 0 -332.64 -492.56 -70.37 0 -191.72 264.41 0 -405.79 -116.74 0 0 633.94zm584.31 -344.74l0 -289.2 116.74 0 0 449.36 -116.74 -160.16z"/>
   <path class="fil0" d="M1491.9 0.02l0 701.8 117.92 0 0 -262.63 138.57 -0.02 105.37 262.65 141.79 0 -131.58 -288.03 6.39 -3.46c15.54,-8.43 29.75,-18.89 42.32,-31.31 45.82,-45.25 60.81,-106.71 60.81,-169.5 0,-59.14 -15.51,-114.52 -60.53,-154.93 -47.26,-42.41 -111.98,-54.57 -173.63,-54.57l-247.43 0zm117.92 331.95l0 -224.72 129.51 0c29.46,0 57.22,7.72 77.92,29.68 21.09,22.36 27.81,52.67 27.81,82.59 0,29.95 -6.76,60 -27.8,82.41 -20.63,21.97 -48.34,30.04 -77.93,30.04l-129.51 0z"/>
  </g>
 </g>
</svg>
